<svg width="82" height="51" viewBox="0 0 82 51" fill="none" xmlns="http://www.w3.org/2000/svg">
<path d="M18 50.63C12.1667 50.63 7.71 48.4833 4.63 44.19C1.55 39.85 0.0100001 33.55 0.0100001 25.29C0.0100001 17.0767 1.55 10.8233 4.63 6.53C7.71 2.19 12.1667 0.0199968 18 0.0199968C23.8333 0.0199968 28.29 2.19 31.37 6.53C34.45 10.8233 35.99 17.0767 35.99 25.29C35.99 33.5033 34.45 39.78 31.37 44.12C28.29 48.46 23.8333 50.63 18 50.63ZM18 43.56C21.1733 43.56 23.4833 42.1133 24.93 39.22C26.3767 36.28 27.1 31.6367 27.1 25.29C27.1 18.8967 26.3767 14.2767 24.93 11.43C23.4833 8.53667 21.1733 7.09 18 7.09C14.8267 7.09 12.5167 8.53667 11.07 11.43C9.62333 14.3233 8.9 18.9433 8.9 25.29C8.9 31.6367 9.62333 36.28 11.07 39.22C12.5167 42.1133 14.8267 43.56 18 43.56ZM76.8427 42.72C79.6427 42.72 81.0427 43.91 81.0427 46.29C81.0427 48.7633 79.6427 50 76.8427 50H53.1827C50.336 50 48.9127 48.7633 48.9127 46.29C48.9127 43.91 50.336 42.72 53.1827 42.72H60.4627V10.8L53.7427 14.93C53.0893 15.3033 52.506 15.49 51.9927 15.49C51.0127 15.49 50.1727 15.07 49.4727 14.23C48.8193 13.39 48.4927 12.4567 48.4927 11.43C48.4927 10.0767 49.0993 9.02666 50.3127 8.28L61.1627 1.56C62.5627 0.719997 63.8927 0.299997 65.1527 0.299997C66.4593 0.299997 67.5093 0.696664 68.3027 1.49C69.096 2.28333 69.4927 3.38 69.4927 4.78V42.72H76.8427Z" fill="#D2E4FA"/>
</svg>
