<svg width="81" height="51" viewBox="0 0 81 51" fill="none" xmlns="http://www.w3.org/2000/svg">
<path d="M18 50.63C12.1667 50.63 7.71 48.4833 4.63 44.19C1.55 39.85 0.0100001 33.55 0.0100001 25.29C0.0100001 17.0767 1.55 10.8233 4.63 6.53C7.71 2.19 12.1667 0.0199968 18 0.0199968C23.8333 0.0199968 28.29 2.19 31.37 6.53C34.45 10.8233 35.99 17.0767 35.99 25.29C35.99 33.5033 34.45 39.78 31.37 44.12C28.29 48.46 23.8333 50.63 18 50.63ZM18 43.56C21.1733 43.56 23.4833 42.1133 24.93 39.22C26.3767 36.28 27.1 31.6367 27.1 25.29C27.1 18.8967 26.3767 14.2767 24.93 11.43C23.4833 8.53667 21.1733 7.09 18 7.09C14.8267 7.09 12.5167 8.53667 11.07 11.43C9.62333 14.3233 8.9 18.9433 8.9 25.29C8.9 31.6367 9.62333 36.28 11.07 39.22C12.5167 42.1133 14.8267 43.56 18 43.56ZM76.6327 42.72C79.4327 42.72 80.8327 43.91 80.8327 46.29C80.8327 48.7633 79.4327 50 76.6327 50H50.0327C48.8193 50 47.8627 49.65 47.1627 48.95C46.4627 48.2033 46.1127 47.2933 46.1127 46.22C46.1127 44.82 46.6493 43.56 47.7227 42.44L63.6827 25.29C65.6427 23.1433 67.066 21.1833 67.9527 19.41C68.886 17.59 69.3527 15.7933 69.3527 14.02C69.3527 11.8267 68.7227 10.1467 67.4627 8.98C66.2027 7.81333 64.406 7.23 62.0727 7.23C60.1593 7.23 58.2927 7.60333 56.4727 8.35C54.6993 9.05 52.9027 10.03 51.0827 11.29C50.616 11.6167 50.1493 11.8967 49.6827 12.13C49.216 12.3167 48.7493 12.41 48.2827 12.41C47.4893 12.41 46.7893 12.0367 46.1827 11.29C45.6227 10.5433 45.3427 9.65667 45.3427 8.63C45.3427 7.93 45.4593 7.32333 45.6927 6.81C45.9727 6.29666 46.3927 5.80667 46.9527 5.34C49.006 3.70666 51.4093 2.42333 54.1627 1.49C56.916 0.509997 59.6693 0.0199968 62.4227 0.0199968C67.2293 0.0199968 71.056 1.23333 73.9027 3.66C76.796 6.08666 78.2427 9.35333 78.2427 13.46C78.2427 16.3067 77.636 18.99 76.4227 21.51C75.2093 23.9833 73.156 26.76 70.2627 29.84L58.1527 42.72H76.6327Z" fill="#D2E4FA"/>
</svg>
