<svg width="80" height="51" viewBox="0 0 80 51" fill="none" xmlns="http://www.w3.org/2000/svg">
<path d="M18 50.63C12.1667 50.63 7.71 48.4833 4.63 44.19C1.55 39.85 0.0100001 33.55 0.0100001 25.29C0.0100001 17.0767 1.55 10.8233 4.63 6.53C7.71 2.19 12.1667 0.0199968 18 0.0199968C23.8333 0.0199968 28.29 2.19 31.37 6.53C34.45 10.8233 35.99 17.0767 35.99 25.29C35.99 33.5033 34.45 39.78 31.37 44.12C28.29 48.46 23.8333 50.63 18 50.63ZM18 43.56C21.1733 43.56 23.4833 42.1133 24.93 39.22C26.3767 36.28 27.1 31.6367 27.1 25.29C27.1 18.8967 26.3767 14.2767 24.93 11.43C23.4833 8.53667 21.1733 7.09 18 7.09C14.8267 7.09 12.5167 8.53667 11.07 11.43C9.62333 14.3233 8.9 18.9433 8.9 25.29C8.9 31.6367 9.62333 36.28 11.07 39.22C12.5167 42.1133 14.8267 43.56 18 43.56ZM70.3327 24.66C73.2727 25.4067 75.5127 26.83 77.0527 28.93C78.6393 30.9833 79.4327 33.55 79.4327 36.63C79.4327 40.8767 77.8693 44.26 74.7427 46.78C71.616 49.3 67.3927 50.56 62.0727 50.56C59.0393 50.56 56.1227 50.0933 53.3227 49.16C50.5227 48.2267 48.1427 46.92 46.1827 45.24C45.1093 44.3067 44.5727 43.21 44.5727 41.95C44.5727 40.9233 44.8527 40.06 45.4127 39.36C46.0193 38.6133 46.7193 38.24 47.5127 38.24C47.9793 38.24 48.3993 38.3333 48.7727 38.52C49.146 38.66 49.6593 38.9167 50.3127 39.29C52.2727 40.5967 54.1393 41.6 55.9127 42.3C57.686 43 59.6227 43.35 61.7227 43.35C64.8027 43.35 67.0893 42.7433 68.5827 41.53C70.076 40.27 70.8227 38.38 70.8227 35.86C70.8227 33.3867 70.0293 31.5667 68.4427 30.4C66.9027 29.1867 64.4993 28.58 61.2327 28.58H57.2427C56.1693 28.58 55.3293 28.23 54.7227 27.53C54.1627 26.7833 53.8827 25.9433 53.8827 25.01C53.8827 24.03 54.1627 23.19 54.7227 22.49C55.3293 21.79 56.1693 21.44 57.2427 21.44H60.0427C66.436 21.44 69.6327 19.0367 69.6327 14.23C69.6327 11.99 68.956 10.2633 67.6027 9.05C66.2493 7.83667 64.3827 7.23 62.0027 7.23C58.596 7.23 54.956 8.58333 51.0827 11.29C50.4293 11.6633 49.916 11.9433 49.5427 12.13C49.1693 12.27 48.7493 12.34 48.2827 12.34C47.4893 12.34 46.7893 11.99 46.1827 11.29C45.6227 10.5433 45.3427 9.65667 45.3427 8.63C45.3427 7.93 45.4593 7.34667 45.6927 6.88C45.9727 6.36666 46.3927 5.85333 46.9527 5.34C48.9127 3.70666 51.246 2.42333 53.9527 1.49C56.706 0.509997 59.506 0.0199968 62.3527 0.0199968C67.206 0.0199968 71.056 1.21 73.9027 3.59C76.796 5.97 78.2427 9.14333 78.2427 13.11C78.196 15.8167 77.4727 18.1967 76.0727 20.25C74.7193 22.2567 72.806 23.7267 70.3327 24.66Z" fill="#D2E4FA"/>
</svg>
