<svg width="83" height="51" viewBox="0 0 83 51" fill="none" xmlns="http://www.w3.org/2000/svg">
<path d="M18 50.63C12.1667 50.63 7.71 48.4833 4.63 44.19C1.55 39.85 0.0100001 33.55 0.0100001 25.29C0.0100001 17.0767 1.55 10.8233 4.63 6.53C7.71 2.19 12.1667 0.0199968 18 0.0199968C23.8333 0.0199968 28.29 2.19 31.37 6.53C34.45 10.8233 35.99 17.0767 35.99 25.29C35.99 33.5033 34.45 39.78 31.37 44.12C28.29 48.46 23.8333 50.63 18 50.63ZM18 43.56C21.1733 43.56 23.4833 42.1133 24.93 39.22C26.3767 36.28 27.1 31.6367 27.1 25.29C27.1 18.8967 26.3767 14.2767 24.93 11.43C23.4833 8.53667 21.1733 7.09 18 7.09C14.8267 7.09 12.5167 8.53667 11.07 11.43C9.62333 14.3233 8.9 18.9433 8.9 25.29C8.9 31.6367 9.62333 36.28 11.07 39.22C12.5167 42.1133 14.8267 43.56 18 43.56ZM78.5227 33.34C79.9227 33.34 80.9727 33.6433 81.6727 34.25C82.3727 34.8567 82.7227 35.72 82.7227 36.84C82.7227 39.1733 81.3227 40.34 78.5227 40.34H74.9527V45.87C74.9527 47.3167 74.5327 48.4367 73.6927 49.23C72.8993 50.0233 71.8493 50.42 70.5427 50.42C69.236 50.42 68.1627 50.0233 67.3227 49.23C66.5293 48.4367 66.1327 47.3167 66.1327 45.87V40.34H47.7927C46.5327 40.34 45.5527 39.99 44.8527 39.29C44.1527 38.5433 43.8027 37.6333 43.8027 36.56C43.8027 35.44 44.176 34.3667 44.9227 33.34L66.5527 2.26C67.0193 1.60666 67.6027 1.11666 68.3027 0.789999C69.0027 0.416665 69.726 0.229998 70.4727 0.229998C71.686 0.229998 72.736 0.626665 73.6227 1.42C74.5093 2.21333 74.9527 3.33333 74.9527 4.78V33.34H78.5227ZM66.1327 33.34V14.51L53.1127 33.34H66.1327Z" fill="#D2E4FA"/>
</svg>
