<svg width="30" height="30" viewBox="0 0 30 30" fill="none" xmlns="http://www.w3.org/2000/svg">
<g clip-path="url(#clip0)">
<path d="M29.2751 23.875C28.6816 24.5875 27.8024 24.9996 26.8751 25H3.12509C2.19779 24.9996 1.31853 24.5875 0.725098 23.875L12.1876 14.325L13.3751 15.1375C14.3533 15.8125 15.6469 15.8125 16.6251 15.1375L17.8126 14.325L29.2751 23.875Z" fill="#3AA7BB"/>
<path d="M29.4502 6.36258L17.8127 14.325L16.6252 15.1376C15.647 15.8126 14.3534 15.8126 13.3752 15.1376L12.1877 14.325L0.550293 6.35004C1.13588 5.50565 2.09769 5.00139 3.12531 5.00004H26.8752C27.9075 4.99459 28.8741 5.506 29.4502 6.36258Z" fill="#46C8E0"/>
<path d="M12.1875 14.325L0.725035 23.875C0.255875 23.3143 -0.000823357 22.6062 5.55471e-05 21.8751V8.12507C-0.00375304 7.49092 0.188375 6.871 0.550074 6.3501L12.1875 14.325Z" fill="#3AA7BB"/>
<path d="M30 8.12505V21.875C30.0008 22.6062 29.7442 23.3143 29.275 23.875L17.8125 14.325L29.45 6.36255C29.8099 6.8797 30.0019 7.49499 30 8.12505Z" fill="#3AA7BB"/>
</g>
<defs>
<clipPath id="clip0">
<rect width="30" height="30" fill="white"/>
</clipPath>
</defs>
</svg>
