<svg width="30" height="30" viewBox="0 0 30 30" fill="none" xmlns="http://www.w3.org/2000/svg">
<circle cx="15" cy="15" r="15" fill="#1E3142"/>
<path d="M9.0625 20L13.125 15.9375L13.75 18.125L9.6875 20.625L9.0625 20Z" fill="#4F5761"/>
<path d="M20.9375 20L16.875 15.9375L16.25 18.125L20.3125 20.625L20.9375 20Z" fill="#4F5761"/>
<path d="M9.375 10L12.8125 13.75V10.625L10 9.375L9.375 10Z" fill="#4F5761"/>
<path d="M20.625 10L17.1875 13.75V10.625L20 9.375L20.625 10Z" fill="#4F5761"/>
<path d="M16.5625 9.6875L17.1875 10.625V17.8125L16.875 18.4375H13.125L12.8125 17.8125V10.625L13.4375 9.6875H16.5625Z" fill="#D4E4F0"/>
<path d="M13.75 18.4375L14.0625 17.1875H15.9375L16.25 18.4375H13.75Z" fill="#68737F"/>
<path d="M9.375 19.2875C9.375 19.4143 9.39998 19.5399 9.4485 19.6571C9.49702 19.7742 9.56815 19.8806 9.65781 19.9703L12.8125 23.125L12.5 23.4375L10.4885 22.8341C10.1667 22.7375 9.8845 22.5398 9.68392 22.2702C9.48333 22.0006 9.375 21.6735 9.375 21.3375C9.375 21.2107 9.35002 21.0851 9.3015 20.9679C9.25298 20.8508 9.18185 20.7444 9.09219 20.6547L5.9375 17.5L6.25 17.1875L8.26148 17.7909C8.58334 17.8875 8.8655 18.0852 9.06608 18.3548C9.26667 18.6244 9.375 18.9515 9.375 19.2875Z" fill="#529DDF"/>
<path d="M9.375 20.9375C9.72018 20.9375 10 20.6577 10 20.3125C10 19.9673 9.72018 19.6875 9.375 19.6875C9.02982 19.6875 8.75 19.9673 8.75 20.3125C8.75 20.6577 9.02982 20.9375 9.375 20.9375Z" fill="#68737F"/>
<path d="M21.65 20.3125C21.5232 20.3125 21.3976 20.3375 21.2804 20.386C21.1633 20.4345 21.0569 20.5056 20.9672 20.5953L17.8125 23.75L17.5 23.4375L18.1034 21.426C18.2 21.1042 18.3977 20.822 18.6673 20.6214C18.9369 20.4208 19.264 20.3125 19.6 20.3125C19.7268 20.3125 19.8524 20.2875 19.9696 20.239C20.0867 20.1905 20.1931 20.1194 20.2828 20.0297L23.4375 16.875L23.75 17.1875L23.1466 19.199C23.05 19.5208 22.8523 19.803 22.5827 20.0036C22.3131 20.2042 21.986 20.3125 21.65 20.3125Z" fill="#529DDF"/>
<path d="M20.625 20.9375C20.9702 20.9375 21.25 20.6577 21.25 20.3125C21.25 19.9673 20.9702 19.6875 20.625 19.6875C20.2798 19.6875 20 19.9673 20 20.3125C20 20.6577 20.2798 20.9375 20.625 20.9375Z" fill="#68737F"/>
<path d="M17.5 6.25L19.5115 6.85344C19.8333 6.95 20.1155 7.14775 20.3161 7.41734C20.5167 7.68694 20.625 8.01402 20.625 8.35005C20.625 8.47685 20.65 8.60241 20.6985 8.71955C20.747 8.8367 20.8181 8.94315 20.9078 9.03281L24.0625 12.1875L23.75 12.5L21.7385 11.8966C21.4167 11.8 21.1345 11.6023 20.9339 11.3327C20.7333 11.0631 20.625 10.736 20.625 10.4C20.625 10.2732 20.6 10.1476 20.5515 10.0304C20.503 9.9133 20.4319 9.80685 20.3422 9.71719L17.1875 6.5625L17.5 6.25Z" fill="#529DDF"/>
<path d="M12.5 6.25L11.8966 8.26148C11.8 8.58334 11.6023 8.8655 11.3327 9.06608C11.0631 9.26667 10.736 9.375 10.4 9.375C10.2732 9.375 10.1476 9.39998 10.0304 9.4485C9.9133 9.49702 9.80685 9.56815 9.71719 9.65781L6.5625 12.8125L6.25 12.5L6.85344 10.4885C6.95 10.1667 7.14775 9.8845 7.41734 9.68392C7.68694 9.48333 8.01402 9.375 8.35005 9.375C8.47685 9.375 8.60241 9.35002 8.71955 9.3015C8.8367 9.25298 8.94315 9.18185 9.03281 9.09219L12.1875 5.9375L12.5 6.25Z" fill="#529DDF"/>
<path d="M15 16.25C15.3452 16.25 15.625 15.9702 15.625 15.625C15.625 15.2798 15.3452 15 15 15C14.6548 15 14.375 15.2798 14.375 15.625C14.375 15.9702 14.6548 16.25 15 16.25Z" fill="#E04446"/>
<path d="M14.6875 14.0625H15.3125L15.625 10.9375H14.375L14.6875 14.0625Z" fill="#E04446"/>
<path d="M20.625 10C20.9702 10 21.25 9.72018 21.25 9.375C21.25 9.02982 20.9702 8.75 20.625 8.75C20.2798 8.75 20 9.02982 20 9.375C20 9.72018 20.2798 10 20.625 10Z" fill="#68737F"/>
<path d="M9.375 10C9.72018 10 10 9.72018 10 9.375C10 9.02982 9.72018 8.75 9.375 8.75C9.02982 8.75 8.75 9.02982 8.75 9.375C8.75 9.72018 9.02982 10 9.375 10Z" fill="#68737F"/>
</svg>
